<svg width="24.000000" height="24.000000" viewBox="0 0 24 24" fill="none" xmlns="http://www.w3.org/2000/svg" xmlns:xlink="http://www.w3.org/1999/xlink">
	<desc>
			Created with Pixso.
	</desc>
	<defs>
		<clipPath id="clip5_1760">
			<rect id="Feather Icons / book-open" rx="0.000000" width="23.000000" height="23.000000" transform="translate(0.500000 0.500000)" fill="white" fill-opacity="0"/>
		</clipPath>
	</defs>
	<rect id="Feather Icons / book-open" rx="0.000000" width="23.000000" height="23.000000" transform="translate(0.500000 0.500000)" fill="#FFFFFF" fill-opacity="0"/>
	<g clip-path="url(#clip5_1760)">
		<path id="Vector" d="M8 3C9.06 3 10.07 3.42 10.82 4.17C11.57 4.92 12 5.93 12 7L12 21C12 20.2 11.68 19.44 11.12 18.87C10.55 18.31 9.79 18 9 18L2 18L2 3L8 3Z" stroke="#3C3ADF" stroke-opacity="1.000000" stroke-width="2.000000" stroke-linejoin="round"/>
		<path id="Vector" d="M16 3C14.93 3 13.92 3.42 13.17 4.17C12.42 4.92 12 5.93 12 7L12 21C12 20.2 12.31 19.44 12.87 18.87C13.44 18.31 14.2 18 15 18L22 18L22 3L16 3Z" stroke="#3C3ADF" stroke-opacity="1.000000" stroke-width="2.000000" stroke-linejoin="round"/>
	</g>
</svg>
