<svg width="24.000000" height="24.000000" viewBox="0 0 24 24" fill="none" xmlns="http://www.w3.org/2000/svg" xmlns:xlink="http://www.w3.org/1999/xlink">
	<desc>
			Created with Pixso.
	</desc>
	<defs/>
	<rect id="Phosphor Icons / ClipboardText" rx="0.000000" width="23.250000" height="23.250000" transform="translate(0.375000 0.375000)" fill="#FFFFFF" fill-opacity="0"/>
	<path id="Vector" d="M9 14.25L15 14.25" stroke="#868F95" stroke-opacity="1.000000" stroke-width="2.000000" stroke-linejoin="round" stroke-linecap="round"/>
	<path id="Vector" d="M9 11.25L15 11.25" stroke="#868F95" stroke-opacity="1.000000" stroke-width="2.000000" stroke-linejoin="round" stroke-linecap="round"/>
	<path id="Vector" d="M15 3.75L18.75 3.75C18.94 3.75 19.13 3.82 19.28 3.96C19.42 4.1 19.5 4.29 19.5 4.48L19.5 20.01C19.5 20.2 19.42 20.39 19.28 20.53C19.13 20.67 18.94 20.75 18.75 20.75L5.25 20.75C5.05 20.75 4.86 20.67 4.71 20.53C4.57 20.39 4.5 20.2 4.5 20.01L4.5 4.48C4.5 4.29 4.57 4.1 4.71 3.96C4.86 3.82 5.05 3.75 5.25 3.75L9 3.75" stroke="#868F95" stroke-opacity="1.000000" stroke-width="2.000000" stroke-linejoin="round" stroke-linecap="round"/>
	<path id="Vector" d="M8.25 6C8.25 5 8.64 4.05 9.34 3.34C10.05 2.64 11 2.25 12 2.25C12.99 2.25 13.94 2.64 14.65 3.34C15.35 4.05 15.75 5 15.75 6L15.75 6.75L8.25 6.75L8.25 6Z" stroke="#868F95" stroke-opacity="1.000000" stroke-width="2.000000" stroke-linejoin="round"/>
</svg>
