<svg width="24.000000" height="24.000000" viewBox="0 0 24 24" fill="none" xmlns="http://www.w3.org/2000/svg" xmlns:xlink="http://www.w3.org/1999/xlink">
	<desc>
			Created with Pixso.
	</desc>
	<defs/>
	<rect id="Phosphor Icons / ClipboardText" rx="0.000000" width="23.250000" height="23.250000" transform="translate(0.375000 0.375000)" fill="#FFFFFF" fill-opacity="0"/>
	<path id="Vector" d="M9 14.25L15 14.25" stroke="#3C3ADF" stroke-opacity="1.000000" stroke-width="2.000000" stroke-linejoin="round" stroke-linecap="round"/>
	<path id="Vector" d="M9 11.25L15 11.25" stroke="#3C3ADF" stroke-opacity="1.000000" stroke-width="2.000000" stroke-linejoin="round" stroke-linecap="round"/>
	<path id="Vector" d="M15 3.75L18.75 3.75C18.94 3.75 19.13 3.82 19.28 3.96C19.42 4.11 19.5 4.3 19.5 4.5L19.5 20.25C19.5 20.44 19.42 20.63 19.28 20.78C19.13 20.92 18.94 21 18.75 21L5.25 21C5.05 21 4.86 20.92 4.71 20.78C4.57 20.63 4.5 20.44 4.5 20.25L4.5 4.5C4.5 4.3 4.57 4.11 4.71 3.96C4.86 3.82 5.05 3.75 5.25 3.75L9 3.75" stroke="#3C3ADF" stroke-opacity="1.000000" stroke-width="2.000000" stroke-linejoin="round" stroke-linecap="round"/>
	<path id="Vector" d="M8.25 6C8.25 5 8.64 4.05 9.34 3.34C10.05 2.64 11 2.25 12 2.25C12.99 2.25 13.94 2.64 14.65 3.34C15.35 4.05 15.75 5 15.75 6L15.75 6.75L8.25 6.75L8.25 6Z" stroke="#3C3ADF" stroke-opacity="1.000000" stroke-width="2.000000" stroke-linejoin="round"/>
</svg>
