<svg width="36" height="36" viewBox="0 0 36 36" fill="none" xmlns="http://www.w3.org/2000/svg">
<path d="M12.3749 18.9706L25.0171 30.094C25.1632 30.2234 25.3404 30.3125 25.5314 30.3526C25.7223 30.3928 25.9205 30.3826 26.1063 30.323C26.2921 30.2634 26.4592 30.1565 26.5912 30.0128C26.7232 29.8691 26.8156 29.6936 26.8593 29.5034L32.1468 6.41278C32.1911 6.21393 32.1806 6.00676 32.1164 5.81341C32.0522 5.62005 31.9367 5.44776 31.7822 5.31493C31.6277 5.1821 31.44 5.09372 31.2392 5.05922C31.0385 5.02472 30.8321 5.04539 30.6421 5.11904L4.68272 15.3143C3.64209 15.7222 3.78272 17.2409 4.87959 17.4659L12.3749 18.9706Z" stroke="#232222" stroke-linecap="round" stroke-linejoin="round"/>
<path d="M12.375 18.9699L31.5141 5.14648" stroke="#232222" stroke-linecap="round" stroke-linejoin="round"/>
<path d="M18.6891 24.5254L14.3016 28.9129C14.145 29.0718 13.9448 29.1807 13.7263 29.2255C13.5078 29.2704 13.2808 29.2493 13.0743 29.1649C12.8678 29.0805 12.6911 28.9366 12.5666 28.7515C12.4421 28.5664 12.3754 28.3485 12.375 28.1254V18.9707" stroke="#232222" stroke-linecap="round" stroke-linejoin="round"/>
</svg>
