<svg width="36" height="36" viewBox="0 0 36 36" fill="none" xmlns="http://www.w3.org/2000/svg">
<path d="M6.38476 24.8905C4.70975 22.0645 4.12386 18.7243 4.73706 15.4969C5.35027 12.2696 7.1204 9.37704 9.71515 7.36232C12.3099 5.3476 15.5508 4.34927 18.8295 4.55474C22.1081 4.76022 25.1991 6.15537 27.522 8.47828C29.8449 10.8012 31.24 13.8921 31.4455 17.1708C31.651 20.4494 30.6526 23.6903 28.6379 26.2851C26.6232 28.8798 23.7306 30.65 20.5033 31.2632C17.2759 31.8764 13.9357 31.2905 11.1098 29.6155V29.6155L6.441 30.9374C6.24972 30.9933 6.04691 30.9968 5.85384 30.9474C5.66076 30.898 5.48452 30.7976 5.3436 30.6566C5.20267 30.5157 5.10225 30.3395 5.05287 30.1464C5.00348 29.9533 5.00693 29.7505 5.06288 29.5592L6.38476 24.8905Z" stroke="#232222" stroke-linecap="round" stroke-linejoin="round"/>
<path d="M21.3891 25.875C19.9088 25.8787 18.4424 25.5899 17.0741 25.0252C15.7058 24.4604 14.4626 23.6308 13.4159 22.5841C12.3692 21.5374 11.5397 20.2942 10.9749 18.9259C10.4101 17.5576 10.1213 16.0912 10.125 14.611C10.1288 13.5691 10.5452 12.5712 11.2833 11.8358C12.0213 11.1004 13.0207 10.6875 14.0625 10.6875V10.6875C14.2344 10.6862 14.4035 10.7311 14.552 10.8178C14.7005 10.9044 14.8229 11.0294 14.9063 11.1797L16.5516 14.0485C16.6494 14.2229 16.6997 14.4199 16.6972 14.6199C16.6947 14.8198 16.6397 15.0156 16.5375 15.1875L15.2157 17.3953C15.8927 18.9016 17.0985 20.1073 18.6047 20.7844L20.8125 19.4625C20.9845 19.3604 21.1802 19.3053 21.3802 19.3029C21.5801 19.3004 21.7772 19.3506 21.9516 19.4485L24.8203 21.0938C24.9707 21.1772 25.0957 21.2996 25.1823 21.4481C25.2689 21.5966 25.3139 21.7656 25.3125 21.9375C25.3089 22.9783 24.8948 23.9755 24.1602 24.7127C23.4256 25.45 22.4298 25.8676 21.3891 25.875V25.875Z" stroke="#232222" stroke-linecap="round" stroke-linejoin="round"/>
</svg>
