<svg width="393.595703" height="388.791016" viewBox="0 0 393.596 388.791" fill="none" xmlns="http://www.w3.org/2000/svg" xmlns:xlink="http://www.w3.org/1999/xlink">
	<desc>
			Created with Pixso.
	</desc>
	<defs/>
	<rect id="Property 1=Variant2" rx="0.000000" width="392.594971" height="387.791443" transform="translate(0.500000 0.500000)" fill="#FFFFFF" fill-opacity="0"/>
	<path id="Vector" d="M261.85 81.94C235.77 108.02 209.75 134.04 183.67 160.12C148.24 195.55 112.75 231.04 77.32 266.47C76.81 266.97 73.94 269.73 69.43 269.73C66.56 269.73 63.75 268.66 61.55 266.47L3.25 208.17C-1.09 203.83 -1.09 196.73 3.25 192.4L187.78 7.87C192.12 3.53 199.21 3.53 203.55 7.87L261.85 66.16C266.19 70.5 266.19 77.6 261.85 81.94Z" fill="#3C3ADF" fill-opacity="1.000000" fill-rule="nonzero"/>
	<path id="Vector" d="M203.56 7.88L385.7 190.02C390.06 194.38 390.06 201.44 385.7 205.8L325.32 266.18C320.97 270.53 313.91 270.53 309.55 266.18L127.41 84.04C123.05 79.68 123.05 72.62 127.41 68.26L187.79 7.88C192.14 3.53 199.21 3.53 203.56 7.88Z" fill="#3C3ADF" fill-opacity="1.000000" fill-rule="evenodd"/>
	<path id="Vector" d="M101.89 282.88L188.44 196.33C192.01 192.77 197.78 192.77 201.35 196.33L287.9 282.88C291.46 286.44 291.46 292.22 287.9 295.78L201.35 382.33C197.78 385.9 192.01 385.9 188.44 382.33L101.89 295.78C98.33 292.22 98.33 286.44 101.89 282.88Z" fill="#3C3ADF" fill-opacity="1.000000" fill-rule="evenodd"/>
</svg>
