<svg width="40.000000" height="40.000000" viewBox="0 0 40 40" fill="none" xmlns="http://www.w3.org/2000/svg" xmlns:xlink="http://www.w3.org/1999/xlink">
	<desc>
			Created with Pixso.
	</desc>
	<defs>
		<clipPath id="clip123_15295">
			<rect id="Feather Icons/Web" rx="0.000000" width="39.000000" height="39.000000" transform="translate(0.500000 0.500000)" fill="white" fill-opacity="0"/>
		</clipPath>
	</defs>
	<rect id="Feather Icons/Web" rx="0.000000" width="39.000000" height="39.000000" transform="translate(0.500000 0.500000)" fill="#FFFFFF" fill-opacity="0"/>
	<g clip-path="url(#clip123_15295)">
		<path id="Vector" d="M36.66 33.2C36.66 33.66 36.57 34.12 36.38 34.54C36.2 34.97 35.92 35.35 35.58 35.66C35.24 35.98 34.83 36.22 34.4 36.37C33.96 36.52 33.49 36.57 33.03 36.53C27.9 35.97 22.97 34.22 18.65 31.41C14.62 28.85 11.2 25.44 8.65 21.41C5.83 17.06 4.08 12.11 3.53 6.96C3.49 6.5 3.54 6.04 3.69 5.6C3.84 5.16 4.07 4.76 4.39 4.41C4.7 4.07 5.08 3.8 5.5 3.61C5.92 3.43 6.38 3.33 6.84 3.33L11.84 3.33C12.65 3.32 13.44 3.61 14.05 4.13C14.66 4.66 15.07 5.39 15.18 6.2C15.39 7.8 15.78 9.37 16.34 10.88C16.57 11.48 16.62 12.12 16.49 12.75C16.35 13.37 16.04 13.94 15.59 14.4L13.48 16.51C15.85 20.68 19.31 24.14 23.48 26.51L25.59 24.4C26.05 23.95 26.62 23.64 27.24 23.51C27.87 23.37 28.51 23.42 29.11 23.65C30.62 24.21 32.19 24.6 33.79 24.81C34.6 24.93 35.34 25.33 35.87 25.96C36.4 26.58 36.68 27.38 36.66 28.2L36.66 33.2Z" stroke="#3C3ADF" stroke-opacity="1.000000" stroke-width="2.000000" stroke-linejoin="round"/>
	</g>
</svg>
