<svg width="36.000000" height="36.000000" viewBox="0 0 36 36" fill="none" xmlns="http://www.w3.org/2000/svg" xmlns:xlink="http://www.w3.org/1999/xlink">
	<desc>
			Created with Pixso.
	</desc>
	<defs/>
	<rect id="Phosphor Icons / TelegramLogo" rx="0.000000" width="35.000000" height="35.000000" transform="translate(0.500000 0.500000)" fill="#FFFFFF" fill-opacity="0"/>
	<path id="Vector" d="M25.01 30.09C25.16 30.22 25.33 30.31 25.53 30.35C25.72 30.39 25.91 30.38 26.1 30.32C26.29 30.26 26.45 30.15 26.59 30.01C26.72 29.86 26.81 29.69 26.85 29.5L32.14 6.41C32.19 6.21 32.17 6 32.11 5.81C32.05 5.61 31.93 5.44 31.78 5.31C31.62 5.18 31.43 5.09 31.23 5.05C31.03 5.02 30.83 5.04 30.64 5.11L4.68 15.31C3.64 15.72 3.78 17.24 4.87 17.46L12.37 18.97L25.01 30.09Z" stroke="#3C3ADF" stroke-opacity="1.000000" stroke-width="2.000000" stroke-linejoin="round"/>
	<path id="Vector" d="M12.37 18.97L31.51 5.14" stroke="#3C3ADF" stroke-opacity="1.000000" stroke-width="2.000000" stroke-linejoin="round" stroke-linecap="round"/>
	<path id="Vector" d="M18.68 24.52L14.3 28.91C14.14 29.07 13.94 29.18 13.72 29.22C13.5 29.27 13.28 29.24 13.07 29.16C12.86 29.08 12.69 28.93 12.56 28.75C12.44 28.56 12.37 28.34 12.37 28.12L12.37 18.97" stroke="#3C3ADF" stroke-opacity="1.000000" stroke-width="2.000000" stroke-linejoin="round" stroke-linecap="round"/>
</svg>
