<svg width="40.000000" height="40.000000" viewBox="0 0 40 40" fill="none" xmlns="http://www.w3.org/2000/svg" xmlns:xlink="http://www.w3.org/1999/xlink">
	<desc>
			Created with Pixso.
	</desc>
	<defs/>
	<rect id="Phosphor Icons / WhatsappLogo" width="40.000000" height="40.000000" fill="#FFFFFF" fill-opacity="0"/>
	<path id="Vector" d="M5.26 17.21C5.94 13.63 7.91 10.41 10.79 8.18C13.67 5.94 17.27 4.83 20.92 5.06C24.56 5.28 27.99 6.83 30.58 9.42C33.16 12 34.71 15.43 34.93 19.07C35.16 22.72 34.05 26.32 31.82 29.2C29.58 32.08 26.36 34.05 22.78 34.73C19.19 35.41 15.48 34.76 12.34 32.9L7.15 34.37C6.94 34.43 6.71 34.44 6.5 34.38C6.28 34.33 6.09 34.21 5.93 34.06C5.78 33.9 5.66 33.71 5.61 33.49C5.55 33.28 5.56 33.05 5.62 32.84L7.09 27.65C5.23 24.51 4.58 20.8 5.26 17.21Z" stroke="#3C3ADF" stroke-opacity="1.000000" stroke-width="2.000000" stroke-linejoin="round"/>
	<path id="Vector" d="M18.97 27.8C17.45 27.17 16.07 26.25 14.9 25.09C13.74 23.93 12.82 22.54 12.19 21.02C11.56 19.5 11.24 17.87 11.25 16.23C11.25 15.07 11.71 13.96 12.53 13.15C13.35 12.33 14.46 11.87 15.62 11.87C15.81 11.87 16 11.92 16.16 12.01C16.33 12.11 16.47 12.25 16.56 12.42L18.39 15.6C18.5 15.8 18.55 16.02 18.55 16.24C18.54 16.46 18.48 16.68 18.37 16.87L16.9 19.32C17.65 21 18.99 22.34 20.67 23.09L23.12 21.62C23.31 21.51 23.53 21.45 23.75 21.44C23.97 21.44 24.19 21.5 24.39 21.6L27.57 23.43C27.74 23.53 27.88 23.66 27.98 23.83C28.07 23.99 28.12 24.18 28.12 24.37C28.12 25.53 27.66 26.63 26.84 27.45C26.02 28.27 24.92 28.74 23.76 28.75C22.12 28.75 20.49 28.43 18.97 27.8Z" stroke="#3C3ADF" stroke-opacity="1.000000" stroke-width="2.000000" stroke-linejoin="round"/>
</svg>
