<svg width="40.000000" height="40.000000" viewBox="0 0 40 40" fill="none" xmlns="http://www.w3.org/2000/svg" xmlns:xlink="http://www.w3.org/1999/xlink">
	<desc>
			Created with Pixso.
	</desc>
	<defs/>
	<rect id="Component 322" rx="0.000000" width="39.000000" height="39.000000" transform="translate(0.500000 0.500000)" fill="#FFFFFF" fill-opacity="0"/>
	<path id="Vector" d="M26.61 8.42C23.96 11.11 21.31 13.79 18.66 16.47C15.06 20.11 11.45 23.76 7.85 27.41C7.8 27.46 7.51 27.75 7.05 27.75C6.76 27.75 6.47 27.64 6.25 27.41L0.33 21.41C-0.11 20.97 -0.11 20.24 0.33 19.79L19.08 0.8C19.52 0.36 20.24 0.36 20.68 0.8L26.61 6.8C27.05 7.25 27.05 7.98 26.61 8.42Z" fill="#3C3ADF" fill-opacity="1.000000" fill-rule="nonzero"/>
	<path id="Vector" d="M20.68 0.81L39.19 19.55C39.64 19.99 39.64 20.72 39.19 21.17L33.06 27.38C32.61 27.83 31.9 27.83 31.45 27.38L12.94 8.64C12.5 8.19 12.5 7.47 12.94 7.02L19.08 0.81C19.52 0.36 20.24 0.36 20.68 0.81Z" fill="#3C3ADF" fill-opacity="1.000000" fill-rule="evenodd"/>
	<path id="Vector" d="M10.35 29.1L19.15 20.19C19.51 19.83 20.09 19.83 20.46 20.19L29.25 29.1C29.62 29.47 29.62 30.06 29.25 30.43L20.46 39.33C20.09 39.7 19.51 39.7 19.15 39.33L10.35 30.43C9.99 30.06 9.99 29.47 10.35 29.1Z" fill="#3C3ADF" fill-opacity="1.000000" fill-rule="evenodd"/>
</svg>
